<svg width="45" height="40" viewBox="0 0 45 40" fill="none" xmlns="http://www.w3.org/2000/svg">
<path d="M25.4625 13.8667H32.3625M12.6375 23.5167H32.3812M13.125 36.6667H31.875M13.6125 3.33333H31.3687C32.5875 3.33333 33.675 3.36667 34.65 3.48333C39.8437 4 41.25 6.16667 41.25 12.1V22.6333C41.25 28.5667 39.8437 30.7333 34.65 31.25C33.675 31.3667 32.6062 31.4 31.3687 31.4H13.6125C12.3937 31.4 11.3062 31.3667 10.3312 31.25C5.13745 30.7333 3.7312 28.5667 3.7312 22.6333V12.1C3.7312 6.16667 5.13745 4 10.3312 3.48333C11.3062 3.36667 12.3937 3.33333 13.6125 3.33333Z" stroke="white" stroke-width="1.5" stroke-linecap="round" stroke-linejoin="round"/>
<path d="M13.4907 13.8333H13.5076M19.6782 13.8333H19.6951" stroke="white" stroke-width="2" stroke-linecap="round" stroke-linejoin="round"/>
</svg>
