<svg width="45" height="40" viewBox="0 0 45 40" fill="none" xmlns="http://www.w3.org/2000/svg">
<g id="Iconsax/Linear/messages2">
<path id="Vector" d="M34.6312 28.05L35.3625 33.3167C35.55 34.7 33.8812 35.6667 32.55 34.95L24.6937 30.8C23.8312 30.8 22.9875 30.75 22.1625 30.65C23.5837 29.1855 24.3685 27.3174 24.375 25.3833C24.375 20.65 19.7625 16.8167 14.0625 16.8167C11.8875 16.8167 9.8812 17.3667 8.21245 18.3333C8.1562 17.9167 8.13745 17.5 8.13745 17.0667C8.13745 9.48333 15.5437 3.33333 24.6937 3.33333C33.8437 3.33333 41.25 9.48333 41.25 17.0667C41.25 21.5667 38.6437 25.55 34.6312 28.05Z" stroke="white" stroke-width="1.5" stroke-linecap="round" stroke-linejoin="round"/>
<path id="Vector_2" d="M24.375 25.3833C24.375 27.3667 23.55 29.2 22.1625 30.65C20.3062 32.65 17.3625 33.9333 14.0625 33.9333L9.16875 36.5167C8.34375 36.9667 7.29375 36.35 7.40625 35.5L7.875 32.2167C5.3625 30.6667 3.75 28.1833 3.75 25.3833C3.75 22.45 5.5125 19.8667 8.2125 18.3333C9.88125 17.3667 11.8875 16.8167 14.0625 16.8167C19.7625 16.8167 24.375 20.65 24.375 25.3833Z" stroke="white" stroke-width="1.5" stroke-linecap="round" stroke-linejoin="round"/>
</g>
</svg>
